<?xml version="1.0" encoding="utf-8"?>
<svg version="1.1" id="Layer_1" x="0px" y="0px" width="64px" height="64px" viewBox="0 0 64 64" style="enable-background:new 0 0 64 64;" xmlns="http://www.w3.org/2000/svg">
  <g transform="matrix(0.934475, 0, 0, 0.934475, 2.096805, 2.096792)">
    <path d="M62.528,25.429l-8.108-1.071c-0.384-1.131-0.856-2.219-1.396-3.269l4.893-6.322c0.577-0.576,0.586-1.508,0.007-2.085&#10;&#9;&#9;l-6.917-6.944c-0.576-0.576-1.507-0.576-2.093,0l-6.488,4.992c-1.058-0.518-2.15-0.961-3.288-1.316l-1.021-7.935&#10;&#9;&#9;C38.116,0.666,37.451,0,36.638,0h-9.793c-0.813,0-1.478,0.666-1.478,1.479l-1.049,8.127c-1.021,0.348-2.011,0.768-2.964,1.256&#10;&#9;&#9;l-6.274-4.969c-0.569-0.584-1.509-0.592-2.092-0.022L5.98,12.719c-0.585,0.569-0.592,1.508-0.023,2.092l4.923,6.538&#10;&#9;&#9;c-0.525,1.05-0.983,2.151-1.345,3.283L1.589,25.57c-0.814-0.007-1.479,0.65-1.486,1.465L0,36.832&#10;&#9;&#9;c-0.007,0.821,0.65,1.487,1.464,1.495l8.107,1.13c0.377,1.132,0.835,2.219,1.368,3.269l-4.938,6.293&#10;&#9;&#9;c-0.583,0.569-0.59,1.508-0.014,2.093l6.866,6.979c0.569,0.585,1.507,0.592,2.092,0.023l6.526-4.946&#10;&#9;&#9;c1.049,0.524,2.143,0.969,3.275,1.331l0.968,7.941c-0.008,0.821,0.65,1.487,1.47,1.494L36.978,64c0.813,0,1.478-0.658,1.485-1.472&#10;&#9;&#9;l1.109-8.119c1.124-0.378,2.209-0.836,3.252-1.375l6.313,4.917c0.567,0.585,1.507,0.585,2.092,0.007l6.955-6.892&#10;&#9;&#9;c0.583-0.569,0.583-1.508,0.015-2.092l-4.968-6.507c0.519-1.05,0.961-2.152,1.324-3.283l7.931-0.999&#10;&#9;&#9;c0.82,0,1.484-0.657,1.484-1.472L64,26.917C64.007,26.096,63.342,25.429,62.528,25.429z M32.018,42.704&#10;&#9;&#9;c-5.92,0-10.717-4.799-10.717-10.722S26.098,21.26,32.018,21.26c5.92,0,10.717,4.799,10.717,10.722S37.938,42.704,32.018,42.704z" style="fill: rgb(188, 188, 188);"/>
  </g>
</svg>