<?xml version="1.0" encoding="utf-8"?>
<svg version="1.1" id="Layer_1" x="0px" y="0px" viewBox="0 0 64 64" style="enable-background:new 0 0 200 200;" xmlns="http://www.w3.org/2000/svg">
  <style type="text/css">
	.st0{fill:#606161;}
</style>
  <g transform="matrix(0.48428, 0, 0, 0.48428, -16.427999, -16.452217)">
    <path class="st0" d="M52.6,164.6h98.7c-1.4-23.6-32-20.2-36.5-32.4c-0.4-4.2-0.2-7.1-0.2-10.9c1.9-1,5.3-7.3,5.9-12.7&#10;&#9;&#9;c1.5-0.1,3.8-1.6,4.5-7.3c0.4-3.1-1.1-4.8-2-5.4c2.4-7.3,7.5-29.9-9.3-32.2c-1.4-2.5-4.7-4-9-4.4V65c0,1.9-1.4,3.5-3.2,3.9l-5,0.9&#10;&#9;&#9;c-0.2,0.5-0.4,0.9-0.6,1.3l2.9,4.2c1.1,1.5,0.9,3.7-0.5,5l-4.6,4.6c-1.2,1.2-3.5,1.5-5,0.5l-4.2-2.9c-0.4,0.2-0.9,0.4-1.3,0.5&#10;&#9;&#9;L82.1,88c-0.2,1.3-1.1,2.3-2.2,2.8c0.3,1.7,0.7,3.4,1.1,5.1c-0.9,0.5-2.4,2.3-2,5.4c0.7,5.7,3,7.2,4.5,7.3c0.6,5.4,4.1,11.7,6,12.7&#10;&#9;&#9;c0,3.8,0.1,6.8-0.2,10.9C84.7,144.4,54,141,52.6,164.6" style="fill: rgb(188, 188, 188);"/>
    <path class="st0" d="M92.9,66.4l-1.7,4l3,5.8l0.4,0.8l-4.1,4.1L83.7,78l-4,1.7l-2,6.3l-0.3,0.8h-5.8L69,79.6L65,78l-5.9,3l-0.8,0.4&#10;&#9;&#9;l-4.1-4.1l3.2-6.8l-1.7-4l-6.2-2l-0.8-0.3v-5.8l7.1-2.5l1.7-4l-3-5.9l-0.4-0.8l4.1-4.1l6.8,3.2l4-1.7l2-6.3l0.3-0.8h5.8l2.5,7.1&#10;&#9;&#9;l4,1.7l5.9-3l0.8-0.4l4.1,4.1l-3.2,6.8l1.7,4l6.3,2L100,58v5.8L92.9,66.4z M74.4,51.8c-5.1,0-9.3,4.2-9.3,9.3&#10;&#9;&#9;c0,5.1,4.2,9.3,9.3,9.3c5.1,0,9.2-4.2,9.2-9.3C83.6,55.9,79.5,51.8,74.4,51.8" style="fill: rgb(188, 188, 188);"/>
  </g>
</svg>