<svg xmlns="http://www.w3.org/2000/svg" width="256" height="228" viewBox="0 0 256 228">
  <path fill="#45B3E3" d="M127.872562,0 C121.219863,0 115.336781,3.32933542 112.010431,9.22147025 L2.49476235,200.590762 C-0.831587449,206.226717 -0.831587449,213.142572 2.49476235,218.778527 C5.82111215,224.414482 11.7041942,228 18.3568938,228 L237.643104,228 C244.295803,228 250.178888,224.670662 253.505238,218.778527 C256.831587,213.142572 256.831587,206.226717 253.505238,200.590762 L143.734694,9.22147025 C140.408344,3.58551519 134.525262,0 127.872562,0 Z M127.872562,15.3707865 C128.640182,15.3707865 129.663674,15.6259646 130.431293,16.9068635 L239.946959,208.276156 C240.714578,209.557054 240.458705,210.580774 239.946959,211.093134 C239.691086,211.605493 238.923467,212.629213 237.388228,212.629213 L18.3568938,212.629213 C16.8216554,212.629213 16.0540362,211.605493 15.7981632,211.093134 C15.5422901,210.580774 15.030544,209.557054 15.7981632,208.276156 L125.313832,16.9068635 C126.081451,15.6259646 127.360816,15.3707865 127.872562,15.3707865 Z M116.363272,54.8935208 C114.87601,54.7794414 113.353765,55.0806524 112.010431,55.8491918 C108.428208,57.89863 107.144846,62.7650466 109.191831,66.3515635 L118.662133,83.0032489 L53.414502,195.977528 C51.3675175,199.564045 52.6458824,204.430462 56.2281052,206.4799 C57.5074705,207.248439 58.7868359,207.505618 60.0662012,207.505618 C62.6249318,207.505618 65.1826619,206.224719 66.7179003,203.662921 L76.9528227,185.730337 L182.630398,185.730337 L207.702959,185.730337 C212.052801,185.730337 215.379151,182.4 215.379151,178.044944 C215.379151,173.689888 212.052801,170.359551 207.702959,170.359551 L186.978239,170.359551 L122.500229,58.6661702 C121.220863,56.4245972 118.842042,55.0836549 116.363272,54.8935208 Z M127.872562,98.1199989 L169.58187,170.360695 L86.4231248,170.360695 L127.872562,98.1199989 Z"/>
</svg>
