<svg id="Layer_1" data-name="Layer 1" xmlns="http://www.w3.org/2000/svg" viewBox="0 0 266 266"><defs><style>.cls-1{fill:#bcbcbc;}</style></defs><title>ASCP_brand2.0_backgroundsArtboard 1</title><path class="cls-1" d="M235.33,109.12a22.54,22.54,0,0,0-21.24,15.25l-31.37.06a50.12,50.12,0,0,0-18.25-31.62l15.75-27.45A22.53,22.53,0,1,0,166.85,58L151.22,85.18a50.14,50.14,0,0,0-36.45.1l-16-27.45a22.51,22.51,0,1,0-13.08,7.9L101.57,93a50.13,50.13,0,0,0-18,31.31H51.67a22.52,22.52,0,0,0-21.1-14.58c-12.44,0-22.51,8.3-22.5,20.74s10.11,24.32,22.55,24.3a22.51,22.51,0,0,0,21.26-15.17H83.53A50.08,50.08,0,0,0,101.59,171L85.65,198.63A22.52,22.52,0,1,0,99,206.07l15.8-27.41a50.15,50.15,0,0,0,36.3.14L167,206.32a22.53,22.53,0,1,0,13.11-7.85L164.36,171.2a50.12,50.12,0,0,0,18.33-31.49l31.66-.06a22.53,22.53,0,1,0,21-30.53ZM157.52,156,155,160.37a.13.13,0,0,1-.23,0l-20.43-22c-3.08,4.85-6.62,10.46-10.69,16.91l4.56,9.32a.23.23,0,0,1,0,.21s-1,1.72-1,1.77a.06.06,0,0,1-.09,0l-6.7-7-4.28-2.46-9.44-2.26s-.08,0,0-.09l1-1.77a.22.22,0,0,1,.18-.11l10.34-.74c3.54-6.75,6.61-12.63,9.27-17.73L98.1,127.77s-.19,0-.09-.21l2.54-4.42a.56.56,0,0,1,.45-.29l33.68-2.4c6-11.48,8.57-16.31,9.91-18.19,3-4.22,7.12-5.53,8.63-4.71h0c1.46.88,2.39,5.1.25,9.82-1,2.12-3.84,6.76-10.76,17.7l14.83,30.34A.54.54,0,0,1,157.52,156Z"/></svg>