<svg id="Layer_1" data-name="Layer 1" xmlns="http://www.w3.org/2000/svg" viewBox="0 0 266 266"><defs><style>.cls-1{fill:#bcbcbc;}</style></defs><title>ASCP_brand2.0_backgroundsArtboard 4</title><path class="cls-1" d="M44.71,79.25,26.93,63.63,44.71,48a2.45,2.45,0,0,0,.68-1.56,2.1,2.1,0,0,0-.68-1.76l-8.4-9a1.85,1.85,0,0,0-1.56-.78A2.86,2.86,0,0,0,33,35.5L4.86,61.87a2.36,2.36,0,0,0,0,3.51L33,91.75a2.87,2.87,0,0,0,1.76.59,1.85,1.85,0,0,0,1.56-.78l8.4-9a2.1,2.1,0,0,0,.68-1.76A2.45,2.45,0,0,0,44.71,79.25Z"/><path class="cls-1" d="M88.46,48l17.77,15.63L88.46,79.25a2.51,2.51,0,0,0-.69,1.56,2.14,2.14,0,0,0,.69,1.76l8.4,9a1.85,1.85,0,0,0,1.56.78,2.87,2.87,0,0,0,1.76-.59L128.3,65.38a2.36,2.36,0,0,0,0-3.51L100.18,35.5a2.73,2.73,0,0,0-1.66-.58,2.33,2.33,0,0,0-1.66.78l-8.4,9a2.14,2.14,0,0,0-.69,1.76A2.51,2.51,0,0,0,88.46,48Z"/><path class="cls-1" d="M60.33,113.33a2.92,2.92,0,0,0,1.17-1.46l26.57-91.8a1.87,1.87,0,0,0-.1-1.76,3,3,0,0,0-1.47-1.17L74.59,13.63a2.32,2.32,0,0,0-1.76.29,2.92,2.92,0,0,0-1.17,1.46L45.1,107.18a1.85,1.85,0,0,0,.1,1.76,2.92,2.92,0,0,0,1.46,1.17l11.91,3.32A1.84,1.84,0,0,0,60.33,113.33Z"/><path class="cls-1" d="M181.85,181.92c-.8-8.91-.49-15.14-.49-23.29,4-2.12,11.27-15.63,12.49-27,3.18-.26,8.19-3.36,9.66-15.59.79-6.57-2.36-10.26-4.27-11.43C204.41,89,215.14,40.94,179.39,36c-3.68-6.47-13.11-9.74-25.35-9.74-15.21.28-26.25,4-33.94,10.13l17.09,16,.16.15.15.15a15.37,15.37,0,0,1,0,21.89l-.15.15-.16.15-28.12,26.37h0c.27,1.1.53,2.21.82,3.32-1.91,1.17-5.06,4.86-4.27,11.43,1.47,12.23,6.47,15.33,9.65,15.59,1.22,11.41,8.74,24.93,12.79,27,0,8.15.31,14.38-.5,23.29-9.7,26.07-75.1,18.75-78.13,69H259.69C256.67,200.67,191.55,208,181.85,181.92Z"/></svg>