<?xml version="1.0" encoding="utf-8"?>
<svg version="1.1" id="Layer_1" x="0px" y="0px" width="64px" height="64px" viewBox="0 0 64 64" style="enable-background:new 0 0 64 64;" xmlns="http://www.w3.org/2000/svg">
  <g transform="matrix(0.241094, 0, 0, 0.241094, -23.680647, -20.498224)">
    <path d="M314.6,125h-19.7v13h18.7v190H148.3V138H167v-13h-19.7c-6.6,0-12,5.4-12,12v192c0,6.6,5.4,12,12,12h167.2&#10;&#9;&#9;c6.6,0,12-5.4,12-12V137C326.6,130.4,321.2,125,314.6,125z" style="fill: rgb(255, 255, 255);"/>
    <path d="M188,150.8h85.9c6.6,0,12-5.4,12-12V138v-13v-2.8c0-6.6-5.4-12-12-12H263c-0.2-1.6-0.6-3.1-1.2-4.5&#10;&#9;&#9;c-0.7-1.6-1.6-3.1-2.7-4.5c-3.3-4.1-8.3-6.7-14-6.7h-28.5c-5.6,0-10.7,2.6-14,6.7c-1.1,1.4-2,2.9-2.7,4.5c-0.6,1.4-1,2.9-1.2,4.5&#10;&#9;&#9;H188c-6.6,0-12,5.4-12,12v2.8v13v0.8C176,145.4,181.4,150.8,188,150.8z M220.1,110.2c0.5-1.7,1.4-3.2,2.6-4.5&#10;&#9;&#9;c2.1-2.2,5-3.5,8.2-3.5c3.2,0,6.1,1.4,8.2,3.5c1.2,1.3,2.1,2.8,2.6,4.5c0.3,1,0.5,2.1,0.5,3.3c0,6.2-5.1,11.3-11.3,11.3&#10;&#9;&#9;c-6.2,0-11.3-5.1-11.3-11.3C219.6,112.4,219.8,111.3,220.1,110.2z" style="fill: rgb(255, 255, 255);"/>
    <path d="M299.5,271.8c0-3-2.5-5.5-5.5-5.5h-54c-3,0-5.5,2.5-5.5,5.5s2.5,5.5,5.5,5.5h54C297,277.2,299.5,274.8,299.5,271.8z" style="fill: rgb(255, 255, 255);"/>
    <path d="M240,285.2c-3,0-5.5,2.5-5.5,5.5s2.5,5.5,5.5,5.5h34.8c3,0,5.5-2.5,5.5-5.5s-2.5-5.5-5.5-5.5H240z" style="fill: rgb(255, 255, 255);"/>
    <path d="M294,181.8h-54c-3,0-5.5,2.5-5.5,5.5s2.5,5.5,5.5,5.5h54c3,0,5.5-2.5,5.5-5.5S297,181.8,294,181.8z" style="fill: rgb(255, 255, 255);"/>
    <path d="M240,211.8h34.8c3,0,5.5-2.5,5.5-5.5s-2.5-5.5-5.5-5.5H240c-3,0-5.5,2.5-5.5,5.5S237,211.8,240,211.8z" style="fill: rgb(255, 255, 255);"/>
    <path d="M168,198.8l13.8,13.8c1.1,1.1,2.5,1.6,3.9,1.6s2.8-0.5,3.9-1.6l30.2-30.2c2.1-2.1,2.1-5.6,0-7.8c-2.1-2.1-5.6-2.1-7.8,0&#10;&#9;&#9;l-26.4,26.4l-9.9-9.9c-2.1-2.1-5.6-2.1-7.8,0C165.8,193.1,165.8,196.6,168,198.8z" style="fill: rgb(255, 255, 255);"/>
    <path d="M208.7,254.8h-31.9c-6.6,0-12,5.4-12,12v28.9c0,6.6,5.4,12,12,12h31.9c6.6,0,12-5.4,12-12v-28.9&#10;&#9;&#9;C220.7,260.2,215.3,254.8,208.7,254.8z M210.7,295.6c0,1.1-0.9,2-2,2h-31.9c-1.1,0-2-0.9-2-2v-28.9c0-1.1,0.9-2,2-2h31.9&#10;&#9;&#9;c1.1,0,2,0.9,2,2V295.6z" style="fill: rgb(255, 255, 255);"/>
  </g>
</svg>