<svg id="Layer_1" data-name="Layer 1" xmlns="http://www.w3.org/2000/svg" viewBox="0 0 266 266"><defs><style>.cls-1{fill:#bcbcbc;}</style></defs><title>ASCP_brand2.0_backgroundsArtboard 5</title><path class="cls-1" d="M249.67,167.31A48.91,48.91,0,0,0,232,149.64a48.05,48.05,0,0,0-48.44,0,49,49,0,0,0-17.68,17.67,48.12,48.12,0,0,0,0,48.44,49.12,49.12,0,0,0,17.68,17.68,48.12,48.12,0,0,0,48.44,0,49,49,0,0,0,17.67-17.68,48.05,48.05,0,0,0,0-48.44Zm-49-5.81a9.91,9.91,0,1,1-3,7.11A9.73,9.73,0,0,1,200.66,161.5Zm20.62,58.23a2.78,2.78,0,0,1-.84,2.05,2.83,2.83,0,0,1-2.05.85H197.17a2.9,2.9,0,0,1-2.9-2.9V214a2.79,2.79,0,0,1,.85-2,2.75,2.75,0,0,1,2-.85h2.89V195.62h-2.89a2.78,2.78,0,0,1-2-.84,2.83,2.83,0,0,1-.85-2.05v-5.79a2.89,2.89,0,0,1,2.9-2.89H212.6a2.87,2.87,0,0,1,2.89,2.89v24.11h2.9a2.89,2.89,0,0,1,2.89,2.9Z"/><path class="cls-1" d="M149.77,184.35a56.77,56.77,0,0,1,7.49-22.1,60.34,60.34,0,0,1,8.44-11.14l-19.51-39.94c21.46-33.94,30.38-48.34,33.36-54.91,6.65-14.62,3.76-27.71-.78-30.46h0l0,0h0C174.07,23.23,161.3,27.3,152,40.39c-4.15,5.83-12.14,20.8-30.74,56.41L16.76,104.25a1.69,1.69,0,0,0-1.39.9l-7.89,13.7a.42.42,0,0,0,.29.66L98.7,140C90.45,155.85,80.93,174.08,70,195l-32.09,2.29a.69.69,0,0,0-.56.36l-3.16,5.48c-.12.21.12.27.12.27l29.3,7,13.27,7.64L97.61,239.9a.17.17,0,0,0,.29,0c.08-.14,3.06-5.32,3.16-5.48a.73.73,0,0,0,0-.67L87,204.81c12.61-20,23.61-37.38,33.15-52.46Z"/></svg>