<?xml version="1.0" encoding="utf-8"?>
<svg version="1.1" id="Layer_1" x="0px" y="0px" viewBox="0 0 64 64" style="enable-background:new 0 0 200 200;" xmlns="http://www.w3.org/2000/svg">
  <style type="text/css">
	.st0{fill:#606161;}
</style>
  <g transform="matrix(0.501442, 0, 0, 0.501442, -20.902136, -18.971581)">
    <path class="st0" d="M161.8,104.5c-2-2.1-4.5-3.2-7.5-3.2c-1.9,0-3.7,0.5-5.3,1.5c-1.6,1-2.9,2.3-3.8,4h-15h-7h-5.2&#10;&#9;&#9;c1-2.1,2-5,3.1-8.9c0.6-2.1,1.2-3.8,1.6-5c0.1-0.4,0.3-0.8,0.5-1.2c0.2-0.4,0.3-0.8,0.5-1.2c0.2-0.5,0.4-0.9,0.6-1.4&#10;&#9;&#9;c0-0.1,0.1-0.2,0.1-0.2c0.5-1,1-1.9,1.5-2.6c0.2-0.3,0.4-0.5,0.6-0.8c0.1-0.1,0.3-0.3,0.4-0.4c0.1-0.1,0.3-0.3,0.5-0.4&#10;&#9;&#9;c0.4-0.3,0.8-0.7,1.2-1c0.2-0.2,0.5-0.3,0.7-0.5c0.3-0.2,0.5-0.3,0.8-0.4v-0.1c0.9-0.5,1.9-0.9,3-1.1c1.4-0.3,3.1-0.5,5-0.5&#10;&#9;&#9;c0.9,1.7,2.2,3,3.8,4s3.4,1.5,5.3,1.5c2.9,0,5.4-1.1,7.5-3.2c2-2.1,3.1-4.8,3.1-7.8c0-3.1-1-5.7-3.1-7.8c-2-2.1-4.5-3.2-7.5-3.2&#10;&#9;&#9;c-1.9,0-3.7,0.5-5.3,1.5s-2.9,2.3-3.8,4c-2.9,0-5.6,0.4-8,1v0c0,0,0,0,0,0c-0.6,0.2-1.2,0.4-1.8,0.6c0,0-0.1,0-0.1,0&#10;&#9;&#9;c-0.6,0.2-1.1,0.4-1.6,0.7c0,0-0.1,0-0.1,0.1c-0.6,0.3-1.1,0.5-1.7,0.8c0,0,0,0,0,0c-3.8,2.2-6.9,5.4-9.3,9.8&#10;&#9;&#9;c-1.4,2.6-2.9,6.5-4.4,11.7c-1.5,4.9-2.8,8.2-3.9,9.8c-1.1,1.6-3,2.4-5.5,2.4h-1.4c-0.9-1.7-2.2-3-3.8-4s-3.4-1.5-5.3-1.5&#10;&#9;&#9;c-2.9,0-5.4,1.1-7.5,3.2c-2,2.1-3.1,4.8-3.1,7.8s1,5.7,3.1,7.8c2,2.1,4.5,3.2,7.5,3.2c1.9,0,3.7-0.5,5.3-1.5c1.6-1,2.9-2.3,3.8-4&#10;&#9;&#9;h22.9h7h15c0.9,1.7,2.2,3,3.8,4c1.6,1,3.4,1.5,5.3,1.5c2.9,0,5.4-1.1,7.5-3.2c2-2.1,3.1-4.8,3.1-7.8S163.9,106.6,161.8,104.5z&#10;&#9;&#9; M143.7,71.6c1-1.1,2.3-1.6,3.7-1.6c1.5,0,2.7,0.5,3.7,1.6c1,1.1,1.5,2.4,1.5,3.9s-0.5,2.8-1.5,3.9c-1,1.1-2.3,1.6-3.7,1.6&#10;&#9;&#9;c-1.5,0-2.7-0.5-3.7-1.6c-1-1.1-1.5-2.4-1.5-3.9S142.6,72.6,143.7,71.6z M95,116.2c-1,1.1-2.3,1.6-3.7,1.6c-1.5,0-2.7-0.5-3.7-1.6&#10;&#9;&#9;c-1-1.1-1.5-2.4-1.5-3.9c0-1.5,0.5-2.8,1.5-3.9c1-1.1,2.3-1.6,3.7-1.6c1.5,0,2.7,0.5,3.7,1.6c1,1.1,1.5,2.4,1.5,3.9&#10;&#9;&#9;C96.5,113.8,96,115.2,95,116.2z M158.1,116.2c-1,1.1-2.3,1.6-3.7,1.6c-1.5,0-2.7-0.5-3.7-1.6c-1-1.1-1.5-2.4-1.5-3.9&#10;&#9;&#9;c0-1.5,0.5-2.8,1.5-3.9c1-1.1,2.3-1.6,3.7-1.6c1.5,0,2.7,0.5,3.7,1.6c1,1.1,1.5,2.4,1.5,3.9C159.7,113.8,159.1,115.2,158.1,116.2z" style="fill: rgb(188, 188, 188);"/>
    <path class="st0" d="M127.6,90.4c-0.6,1.4-1.2,2.6-1.6,3.8c-0.4,1.2-0.9,2.8-1.5,4.8c-0.4,1.4-0.8,2.6-1.2,3.8v0.5h7V86.9&#10;&#9;&#9;c-0.4,0.4-0.9,0.7-1.2,1.1C128.7,88.3,128.2,89,127.6,90.4z" style="fill: rgb(188, 188, 188);"/>
    <path class="st0" d="M123.3,145.8H53.1v-9.6v-32.4v-17h22.8c1.5,0,2.7-0.5,3.7-1.6c1-1.1,1.5-2.4,1.5-3.9V57.4h42.1V70&#10;&#9;&#9;c2.1-1.2,4.5-2.1,7-2.7V55.5c0-1.5-0.5-2.8-1.5-3.9c-1-1.1-2.3-1.6-3.7-1.6H75.9c-1.5,0-3.1,0.4-4.8,1.2c-1.8,0.8-3.1,1.7-4.2,2.8&#10;&#9;&#9;l-17.1,18c-1,1.1-1.9,2.5-2.6,4.4c-0.7,1.8-1.1,3.5-1.1,5.1v18.8v39.7v7.8c0,1.5,0.5,2.8,1.5,3.9c1,1.1,2.3,1.6,3.7,1.6H125&#10;&#9;&#9;c1.5,0,2.7-0.5,3.7-1.6c1-1.1,1.5-2.4,1.5-3.9v-26.2h-7V145.8z M54.8,77.1l17.2-18c0.4-0.5,1.2-0.9,2.2-1.3v21.6H53.6&#10;&#9;&#9;C53.9,78.4,54.3,77.6,54.8,77.1z" style="fill: rgb(188, 188, 188);"/>
  </g>
</svg>