<?xml version="1.0" encoding="utf-8"?>
<svg version="1.1" id="Layer_1" x="0px" y="0px" viewBox="0 0 64 64" style="enable-background:new 0 0 200 200;" xmlns="http://www.w3.org/2000/svg">
  <style type="text/css">
	.st0{fill:#606060;}
</style>
  <g transform="matrix(0.341854, 0, 0, 0.341854, -2.373422, -2.151215)">
    <path class="st0" d="M176.2,100.6l-7.3,6.9c-1.8,37-32.3,66.5-69.7,66.5c-16.5,0-31.7-5.8-43.6-15.4c-2.5,1.6-5,3.1-7.7,4.6&#10;&#9;&#9;c13.8,12,31.7,19.2,51.3,19.2c43.2,0,78.4-35.2,78.4-78.4c0-1.6-0.1-3.1-0.2-4.6L176.2,100.6z" style="fill: rgb(255, 255, 255);"/>
    <path class="st0" d="M63.8,147.8c22.6-16.5,41.8-36.8,61.6-55.7c-0.8-2.3-1.8-5.3-2.6-7.1c-1.5-0.6-3.7-1.4-5.7-2&#10;&#9;&#9;c-18.8,20.7-36.3,42-57.2,59.8c-3.7,3.2-7.6,6.2-11.6,9c-2,1.4-3.9,2.9-5.9,4.2c-0.4,0.2-0.8,0.5-1.1,0.7c-4.8,2.9-10,5.2-15.3,5.2&#10;&#9;&#9;c-1,0-2.1-0.1-3.1-0.3c-3.2-0.7-6.5-2.5-8.4-5.3c-2-2.7-2.4-6.4-1.7-9.9c1.3-7.2,5.1-13.7,8.6-20.3c-3.9,6.3-8.2,12.5-10.1,20&#10;&#9;&#9;c-1,3.7-0.9,8,1.3,11.6c2.2,3.5,5.7,5.8,9.6,7c1.8,0.5,3.6,0.7,5.3,0.7c2.2,0,4.5-0.3,6.6-0.9c3.8-1,7.3-2.5,10.6-4.3&#10;&#9;&#9;c0.1,0,0.1-0.1,0.2-0.1c2.5-1.4,5-3,7.4-4.5C56.1,153.2,60,150.6,63.8,147.8z" style="fill: rgb(255, 255, 255);"/>
    <path class="st0" d="M24.7,128.6c3,9.1,7.6,17.5,13.6,24.8c0.6-0.3,1.1-0.6,1.7-1c1.8-1.2,3.6-2.5,5.4-3.8&#10;&#9;&#9;c-10.1-12.1-16.1-27.7-16.1-44.6c0-38.5,31.4-69.9,69.9-69.9c1.7,0,3.3,0.1,5,0.3l2.4-2.6l4.8-5.2c-4-0.6-8-1-12.1-1&#10;&#9;&#9;c-43.2,0-78.4,35.2-78.4,78.4c0,8.3,1.3,16.2,3.7,23.7C24.5,128.1,24.6,128.4,24.7,128.6z" style="fill: rgb(255, 255, 255);"/>
    <path class="st0" d="M188.4,18.5c-0.6-0.6-1.5-0.9-2.7-1c-0.2,0-0.4,0-0.6,0c-7-0.1-11.9,6.6-16.3,11.2c-3.5,3.8-7.1,7.5-10.6,11.3&#10;&#9;&#9;L136.3,35l-17.5-3.9l-4.4,4.8l-1.6,1.8l33.8,15.2c0,0,0.1,0.1,0.1,0.1L130,70.9c0,0-10.8-3.2-12.6-3.2c-0.1,0-0.2,0-0.2,0.1&#10;&#9;&#9;c-0.3,0.5-2.3,5.8-1.9,5.9c0.1,0,1.6,0.5,3.6,1.1c2.1,0.7,4.6,1.5,6.7,2.4c1.9,0.7,3.3,1.5,3.6,1.9l0.3,0.4&#10;&#9;&#9;c0.4,0.7,0.9,1.7,1.3,2.8c0.6,1.5,1.2,3.2,1.8,4.8c0.1,0.3,0.2,0.6,0.3,1c0.3,0.8,0.5,1.6,0.7,2.2c0.4,1.2,0.7,2.1,0.7,2.2&#10;&#9;&#9;c0,0,0.1,0,0.1,0c0.8,0,5.2-1.8,5.7-2.1c0.5-0.3-3.3-12.8-3.3-12.8l17.3-16.5l0.4-0.4l1.2,2.5l11.1,23.9l3.4,7.3l5.8-5.5l0.7-0.6&#10;&#9;&#9;L167.4,49c3-2.9,6-5.8,9-8.7c3.7-3.6,8.1-7,10.7-11.5C188.7,26.2,190.8,20.8,188.4,18.5z" style="fill: rgb(255, 255, 255);"/>
  </g>
</svg>