<?xml version="1.0" encoding="utf-8"?>
<svg version="1.1" id="Layer_1" x="0px" y="0px" viewBox="0 0 64 64" style="enable-background:new 0 0 200 200;" xmlns="http://www.w3.org/2000/svg">
  <defs>
    <style>.cls-1{fill:#4ab4e1;}</style>
  </defs>
  <style type="text/css">
	.st0{fill:#606161;}
</style>
  <title>HighValueCustomer</title>
  <path class="cls-1" d="M 39.194 47.445 C 39.064 45.675 39.027 43.901 39.079 42.13 C 40.001 41.651 41.605 38.557 41.932 35.957 C 42.653 35.957 43.801 35.186 44.129 32.398 C 44.338 31.41 43.96 30.393 43.157 29.787 C 44.329 26.252 46.792 15.217 38.638 14.143 C 37.793 12.692 36.439 12.099 33.649 12.099 C 32.003 12.101 31.23 13.119 29.409 14.649 C 27.463 18.517 22.55 21.904 21.094 23.204 L 21.774 25.366 L 22.547 29.233 C 22.349 29.736 21.724 31.921 21.798 32.461 C 22.138 35.25 23.275 35.957 23.995 36.021 C 24.272 38.623 25.99 41.714 26.911 42.193 C 26.964 43.964 26.924 45.738 26.796 47.507 C 24.601 53.39 9.681 51.723 8.986 63.185 L 56.954 63.185 C 56.271 51.723 41.401 53.39 39.194 47.445 Z" style="fill: rgb(69, 179, 227);"/>
  <path class="cls-1" d="M 12.815 15.908 L 19.124 21.639 L 20.69 20.252 L 25.551 15.908 C 26.8 14.804 27.681 13.342 28.075 11.718 C 28.242 11.097 28.294 10.45 28.228 9.814 C 28.135 7.6 26.691 5.678 24.592 4.977 C 24.183 4.85 23.758 4.782 23.33 4.775 C 21.603 4.782 20.011 5.698 19.138 7.185 C 18.315 5.706 16.757 4.783 15.062 4.775 C 12.347 4.895 10.194 7.108 10.151 9.825 C 10.083 10.462 10.136 11.11 10.303 11.731 C 10.698 13.349 11.574 14.804 12.815 15.908 Z" style="fill: rgb(69, 179, 227);"/>
</svg>