<svg id="Layer_1" data-name="Layer 1" xmlns="http://www.w3.org/2000/svg" viewBox="0 0 266 266"><defs><style>.cls-1{fill:#bcbcbc;}</style></defs><title>ASCP_brand2.0_backgroundsArtboard 2</title><path class="cls-1" d="M197.44,179.51l-31.71,53A12.91,12.91,0,0,0,164.08,243,13.76,13.76,0,0,0,181,253.18a13,13,0,0,0,8.51-6.38l32-52.84a35,35,0,0,1-24-14.45Zm-12.81,58.62a5.26,5.26,0,1,1,.59-4A5,5,0,0,1,184.63,238.13Z"/><path class="cls-1" d="M250.54,172.15l-22.87,0L219,159.91l8.73-12.18,22.87,0a2.49,2.49,0,0,0,2.29-1.3,2.33,2.33,0,0,0-.11-2.62,31,31,0,0,0-11.2-11.12,31.25,31.25,0,0,0-31.26.06,31.8,31.8,0,0,0-11.45,11.53,30.84,30.84,0,0,0-4.27,15.78,30.18,30.18,0,0,0,4.23,15.69,31.28,31.28,0,0,0,27.09,15.5,30.3,30.3,0,0,0,15.58-4.11,31,31,0,0,0,11.23-11.09,2.31,2.31,0,0,0,.12-2.62A2.51,2.51,0,0,0,250.54,172.15Z"/><path class="cls-1" d="M184.58,159.7a42.46,42.46,0,0,1,.64-7.16L164.44,110c23.93-37.84,33.88-53.9,37.21-61.23,7.41-16.31,4.19-30.9-.88-34h0l-.05,0h0c-5.19-2.84-19.43,1.69-29.82,16.29-4.64,6.51-13.55,23.2-34.29,62.91l-116.5,8.3a1.93,1.93,0,0,0-1.56,1c-.26.45-8.59,14.91-8.8,15.29-.34.58.33.73.33.73l101.4,22.88c-9.2,17.64-19.82,38-32,61.33l-35.79,2.55a.76.76,0,0,0-.62.4c-.11.18-3.44,6-3.52,6.12s.13.29.13.29l32.68,7.82,14.79,8.52,23.16,24.34s.19.2.32,0l3.52-6.11a.75.75,0,0,0,0-.74L98.39,214.43c14.07-22.29,26.33-41.68,37-58.49l39.29,42.37L188,176.07A40.48,40.48,0,0,1,184.58,159.7Z"/></svg>