<?xml version="1.0" encoding="utf-8"?>
<svg version="1.1" id="Layer_1" x="0px" y="0px" viewBox="0 0 64 64" style="enable-background:new 0 0 200 200;" xmlns="http://www.w3.org/2000/svg">
  <style type="text/css">
	.st0{fill:#606060;}
</style>
  <g transform="matrix(0.415716, 0, 0, 0.415716, -9.571596, -9.571598)">
    <path class="st0" d="M163.2,165H36.8c-6.7,0-12.2-5.5-12.2-12.2V47.2c0-6.7,5.5-12.2,12.2-12.2h126.4c6.7,0,12.2,5.5,12.2,12.2&#10;&#9;&#9;v105.6C175.4,159.5,169.9,165,163.2,165z M36.8,43.1c-2.2,0-4.1,1.8-4.1,4.1v105.6c0,2.2,1.8,4.1,4.1,4.1h126.4&#10;&#9;&#9;c2.2,0,4.1-1.8,4.1-4.1V47.2c0-2.2-1.8-4.1-4.1-4.1H36.8z" style="fill: rgb(69, 179, 227);"/>
  </g>
  <g transform="matrix(0.415716, 0, 0, 0.415716, -9.571596, -9.571598)">
    <path class="st0" d="M127.5,141.8c-0.1,0-0.2,0-0.3,0c-1.6-0.1-2.9-1.4-3.1-3l-7.5-60.3l-14,31c-0.6,1.2-1.8,2-3.2,2&#10;&#9;&#9;c-1.4,0-2.6-0.9-3.1-2.1l-1.7-4.3l-5.1,13.8c-0.5,1.4-1.9,2.3-3.4,2.2c-1.5-0.1-2.7-1.1-3.1-2.6l-8.3-35.2l-9.3,18.4&#10;&#9;&#9;c-0.5,1-1.4,1.7-2.5,1.8c-1.1,0.2-2.2-0.2-2.9-1l-6.4-6.7l-6.1,14.3c-0.7,1.7-2.7,2.5-4.4,1.8c-1.7-0.7-2.5-2.7-1.8-4.4l8.1-19&#10;&#9;&#9;c0.4-1,1.4-1.8,2.5-2c1.1-0.2,2.3,0.2,3,1l6.6,6.9l11.4-22.4c0.6-1.3,2-2,3.4-1.8c1.4,0.2,2.6,1.2,2.9,2.6l7.8,33.2l4.2-11.5&#10;&#9;&#9;c0.5-1.3,1.7-2.2,3.1-2.2c1.4,0,2.7,0.8,3.2,2.1l2,5.2l15.7-34.7c0.6-1.4,2.1-2.2,3.6-2c1.5,0.2,2.7,1.4,2.9,2.9l6.9,55.5l9.9-35.6&#10;&#9;&#9;c0.4-1.3,1.5-2.3,2.9-2.5c1.4-0.1,2.7,0.6,3.4,1.8l10.8,20.8c0.9,1.7,0.2,3.7-1.4,4.6c-1.7,0.9-3.7,0.2-4.6-1.4l-6.9-13.2&#10;&#9;&#9;l-12.1,43.7C130.4,140.7,129,141.8,127.5,141.8z" style="fill: rgb(69, 179, 227);"/>
  </g>
</svg>