<svg id="Layer_1" data-name="Layer 1" xmlns="http://www.w3.org/2000/svg" viewBox="0 0 266 266"><defs><style>.cls-1{fill:#ffffff;}</style></defs><title>ASCP_brand2.0_backgroundsArtboard 3</title><path class="cls-1" d="M107.64,116.6q-6,0-6,6.68V134q0,6.69,6,6.69T113.5,134V123.28Q113.5,116.6,107.64,116.6Z"/><path class="cls-1" d="M160.76,157.76q-6,0-6,6.69v10.78c0,4.39,2,6.57,6,6.57s6-2.18,6-6.57V164.45Q166.74,157.76,160.76,157.76Z"/><path class="cls-1" d="M233.28,126.41,145.79,38.93a19.07,19.07,0,0,0-14-5.78H47.57A19.72,19.72,0,0,0,27.77,53v84.18a19.1,19.1,0,0,0,5.77,14L121,238.66a19.92,19.92,0,0,0,28.06,0l84.19-84.19a19.94,19.94,0,0,0,0-28.06ZM74,99.18a19.72,19.72,0,0,1-19.8-19.81A19.72,19.72,0,0,1,74,59.56,19.72,19.72,0,0,1,93.79,79.37,19.72,19.72,0,0,1,74,99.18Zm27,50.31a15.26,15.26,0,0,1-5.46-3.05,14.54,14.54,0,0,1-3.69-5,16.81,16.81,0,0,1-1.35-7V122.81a16.88,16.88,0,0,1,1.35-7,14,14,0,0,1,3.69-5,16.57,16.57,0,0,1,5.46-3,20.56,20.56,0,0,1,6.63-1.06,20.23,20.23,0,0,1,6.51,1.06,15.75,15.75,0,0,1,5.39,3,14.14,14.14,0,0,1,3.63,5,16.88,16.88,0,0,1,1.35,7v11.61a16.81,16.81,0,0,1-1.35,7,14.48,14.48,0,0,1-9,8.09,21.05,21.05,0,0,1-6.51,1A21.4,21.4,0,0,1,101,149.49ZM120.42,191h-12L148,107.45h12Zm57.35-15.36a16.77,16.77,0,0,1-1.35,7,14.58,14.58,0,0,1-3.69,5.05,15.57,15.57,0,0,1-5.4,3,22.3,22.3,0,0,1-13.14,0,15.52,15.52,0,0,1-5.39-3,14.33,14.33,0,0,1-3.69-5.05,16.77,16.77,0,0,1-1.35-7V164a16.81,16.81,0,0,1,1.35-7,13.84,13.84,0,0,1,3.69-5,16.52,16.52,0,0,1,5.39-3,20.89,20.89,0,0,1,13.14,0,16.56,16.56,0,0,1,5.4,3,14.08,14.08,0,0,1,3.69,5,16.81,16.81,0,0,1,1.35,7Z"/></svg>