<svg id="Layer_1" data-name="Layer 1" xmlns="http://www.w3.org/2000/svg" viewBox="0 0 266 266"><defs><style>.cls-1{fill:#ffffff;}</style></defs><title>ASCP_brand2.0_backgroundsArtboard 6</title><path class="cls-1" d="M244.1,182.35c-5.32-8.11-18.46-3.27-25.43,2.74-8.06,6.93-17.59,12.53-28.64,13.7-17.56,1.86-36.94,2.73-52.18-7.19,6.93-3.42,16.6-.72,24.6-.67,11.21.07,22.68,3.33,33.68,1.11,11.27-2.27,12.18-21.32.36-25.22-17-5.62-35.19-4.56-52.23-9.07-12.81-3.4-23.89-11.92-37.29-13.7a104.56,104.56,0,0,0-13.42-.83,151.32,151.32,0,0,0-44.53,7v56.94c4.95,1.42,8.83,2.13,13.88,3.15,14.67,3,26.91,12.95,40.58,19C115.25,234.49,127,242,140.05,242.2c20,.37,39.49-4.67,59.13-7.8,15.86-2.53,30.2-16.51,40.83-28C249.65,196,248.84,189.58,244.1,182.35Z"/><rect class="cls-1" x="14.91" y="139.58" width="26.67" height="80.04"/><path class="cls-1" d="M107.54,91.38a1.16,1.16,0,0,0,1.62-.11,69.59,69.59,0,0,1,104.58,0,1.14,1.14,0,0,0,1.61.11l14.32-12.61a1.14,1.14,0,0,0,.11-1.61,90.92,90.92,0,0,0-136.66,0,1.12,1.12,0,0,0,.1,1.61Z"/><path class="cls-1" d="M182.91,118.41a1.12,1.12,0,0,0,.86.39,1.16,1.16,0,0,0,.75-.29l14.32-12.6a1.08,1.08,0,0,0,.38-.78,1.12,1.12,0,0,0-.28-.83,49.87,49.87,0,0,0-75,0,1.14,1.14,0,0,0,.11,1.61l14.31,12.6a1.14,1.14,0,0,0,1.62-.1,28.55,28.55,0,0,1,42.92,0Z"/><circle class="cls-1" cx="161.45" cy="137.29" r="12.54" transform="translate(-49.79 154.37) rotate(-45)"/></svg>