<?xml version="1.0" encoding="utf-8"?>
<svg version="1.1" id="Layer_1" x="0px" y="0px" viewBox="0 0 64 64" style="enable-background:new 0 0 200 200;" xmlns="http://www.w3.org/2000/svg">
  <style type="text/css">
	.st0{fill:#606161;}
</style>
  <g transform="matrix(0.501442, 0, 0, 0.501442, -12.902136, -18.971581)">
    <g transform="matrix(1, 0, 0, 1, 1.396028, 0)">
      <path class="st0" d="M 123.3 145.8 L 53.1 145.8 L 53.1 136.2 L 53.1 103.8 L 53.1 86.8 L 75.9 86.8 C 77.4 86.8 78.6 86.3 79.6 85.2 C 80.6 84.1 81.1 82.8 81.1 81.3 L 81.1 57.4 L 123.2 57.4 L 123.2 130.593 C 125.3 129.393 127.7 137.87 130.2 137.27 L 130.2 55.5 C 130.2 54 129.7 52.7 128.7 51.6 C 127.7 50.5 126.4 50 125 50 L 75.9 50 C 74.4 50 72.8 50.4 71.1 51.2 C 69.3 52 68 52.9 66.9 54 L 49.8 72 C 48.8 73.1 47.9 74.5 47.2 76.4 C 46.5 78.2 46.1 79.9 46.1 81.5 L 46.1 100.3 L 46.1 140 L 46.1 147.8 C 46.1 149.3 46.6 150.6 47.6 151.7 C 48.6 152.8 49.9 153.3 51.3 153.3 L 125 153.3 C 126.5 153.3 127.7 152.8 128.7 151.7 C 129.7 150.6 130.2 149.3 130.2 147.8 L 130.2 121.6 L 123.2 121.6 L 123.2 145.8 L 123.3 145.8 Z M 54.8 77.1 L 72 59.1 C 72.4 58.6 73.2 58.2 74.2 57.8 L 74.2 79.4 L 53.6 79.4 C 53.9 78.4 54.3 77.6 54.8 77.1 Z" style="fill: rgb(69, 179, 227);"/>
    </g>
    <path d="M 95.668 130.086 L 107.916 130.086 L 109.951 130.086 L 109.951 126.002 L 109.958 126.002 L 109.958 87.222 C 109.958 85.996 109.141 85.179 107.916 85.179 L 95.668 85.179 C 94.443 85.179 93.628 85.996 93.628 87.222 L 93.628 99.467 L 83.422 99.467 C 82.197 99.467 81.38 100.283 81.38 101.509 L 81.38 109.672 L 71.176 109.672 C 69.951 109.672 69.134 110.489 69.134 111.712 L 69.134 128.043 C 69.134 129.268 69.951 130.086 71.176 130.086 L 83.422 130.086 L 95.668 130.086 Z M 97.71 89.26 L 105.874 89.26 L 105.874 126.002 L 97.71 126.002 L 97.71 101.509 L 97.71 89.26 Z M 85.464 103.547 L 93.628 103.547 L 93.628 126.002 L 85.464 126.002 L 85.464 111.712 L 85.464 103.547 Z M 73.215 113.754 L 81.38 113.754 L 81.38 126.002 L 73.215 126.002 L 73.215 113.754 Z" style="fill: rgb(69, 179, 227); stroke: rgb(69, 179, 227); stroke-width: 0.598275;"/>
  </g>
</svg>