<?xml version="1.0" encoding="utf-8"?>
<svg id="Capa_1" style="enable-background:new 0 0 477.2 477.2;" x="0px" y="0px" viewBox="0 0 477.2 477.2" xmlns="http://www.w3.org/2000/svg">
  <style type="text/css">
	.st0{fill:#222222;}
</style>
  <g transform="matrix(1, 0, 0, 1, 92.800011, 0.049987)">
    <path class="st0" d="M 92.8 70.8 C 88.6 70.8 84.4 72.6 81.4 75.5 L 35.9 121 C 32.9 124 31.2 128.1 31.2 132.4 C 31.2 136.7 32.9 140.8 35.9 143.8 L 130.7 238.6 L 35.9 333.4 C 32.9 336.4 31.1 340.7 31.2 345 C 31.3 349.1 33 353.2 35.9 356.1 L 81.4 401.6 C 84.4 404.6 88.6 406.3 92.8 406.3 C 97 406.3 101.2 404.6 104.2 401.6 L 255.8 250 C 258.8 247 260.5 242.8 260.5 238.6 C 260.5 234.4 258.8 230.2 255.8 227.2 L 104.1 75.6 C 101.2 72.6 97 70.8 92.8 70.8 L 92.8 70.8 Z" style="fill: rgb(89, 89, 89);"/>
  </g>
</svg>