<?xml version="1.0" encoding="utf-8"?>
<svg id="Capa_1" style="enable-background:new 0 0 493.3 493.3;" x="0px" y="0px" viewBox="0 0 493.3 493.3" xmlns="http://www.w3.org/2000/svg">
  <g id="XMLID_621_">
    <path id="XMLID_623_" d="M157.2,183.8h178.9c7.2,0,13.9-4,17.3-10.4c3.4-6.4,2.9-14.1-1.2-20.1L261.6,21c-3.2-4.7-8.6-7.6-14.4-7.6&#10;&#9;&#9;c-5.7,0-11.1,2.8-14.4,7.5l-91.7,132.3c-4.1,6-4.6,13.7-1.2,20.2C143.3,179.8,149.9,183.8,157.2,183.8z" style="fill: rgb(138, 138, 138);"/>
    <path id="XMLID_622_" d="M336.1,313.4H157.2c-7.3,0-13.9,4-17.3,10.5c-3.4,6.4-2.9,14.2,1.2,20.2l91.7,132.3&#10;&#9;&#9;c3.3,4.7,8.7,7.5,14.4,7.5c5.7,0,11.1-2.9,14.4-7.6L352.2,344c4.1-6,4.5-13.7,1.2-20.1C350,317.4,343.3,313.4,336.1,313.4z" style="fill: rgb(138, 138, 138);"/>
  </g>
</svg>