<?xml version="1.0" encoding="utf-8"?>
<svg id="Layer_1" width="24px" height="24px" viewBox="0 0 24 24" xmlns="http://www.w3.org/2000/svg">
  <g>
    <path d="M19.5,5.5H24l-5-5V5C19,5.275,19.225,5.5,19.5,5.5z" style="fill: rgb(255, 255, 255);"/>
    <path d="M9,10c0,0.275,0.225,0.5,0.5,0.5H14l-5-5V10z" style="fill: rgb(255, 255, 255);"/>
    <path d="M7.6,11V5.5H0.5C0.225,5.5,0,5.725,0,6v17c0,0.275,0.225,0.5,0.5,0.5h13c0.274,0,0.5-0.225,0.5-0.5V11.9H8.5   C7.914,11.9,7.6,11.377,7.6,11z" style="fill: rgb(255, 255, 255);"/>
    <path d="M17.6,6.003V0.5h-7.1C10.225,0.5,10,0.725,10,1v3.02l5.4,5.4v9.08h8.1c0.274,0,0.5-0.225,0.5-0.5V6.9h-5.502   C17.912,6.9,17.6,6.38,17.6,6.003z" style="fill: rgb(255, 255, 255);"/>
  </g>
</svg>