<?xml version="1.0" encoding="utf-8"?>
<svg version="1.1" id="Capa_1" x="0px" y="0px" viewBox="0 0 20 20" style="enable-background:new 0 0 60 60;" width="40px" height="40px" xmlns="http://www.w3.org/2000/svg">
  <path d="M 15.26 6.938 L 18.222 2.201 C 18.281 2.105 18.285 1.987 18.23 1.889 C 18.176 1.792 18.074 1.731 17.962 1.731 L 4.18 1.731 L 4.18 1.119 C 4.18 0.949 4.043 0.813 3.874 0.813 C 3.707 0.813 3.569 0.949 3.569 1.119 L 3.569 2.038 L 3.569 10.92 L 3.569 11.838 L 3.569 18.882 C 3.569 19.05 3.707 19.188 3.874 19.188 C 4.043 19.188 4.18 19.05 4.18 18.882 L 4.18 12.145 L 17.962 12.145 C 18.074 12.145 18.176 12.084 18.23 11.986 C 18.285 11.889 18.281 11.77 18.222 11.675 L 15.26 6.938 Z" fill="#D80027"/>
  <g transform="matrix(0.306247, 0, 0, 0.306247, 1.730646, 0.812491)"/>
  <g transform="matrix(0.306247, 0, 0, 0.306247, 1.730646, 0.812491)"/>
  <g transform="matrix(0.306247, 0, 0, 0.306247, 1.730646, 0.812491)"/>
  <g transform="matrix(0.306247, 0, 0, 0.306247, 1.730646, 0.812491)"/>
  <g transform="matrix(0.306247, 0, 0, 0.306247, 1.730646, 0.812491)"/>
  <g transform="matrix(0.306247, 0, 0, 0.306247, 1.730646, 0.812491)"/>
  <g transform="matrix(0.306247, 0, 0, 0.306247, 1.730646, 0.812491)"/>
  <g transform="matrix(0.306247, 0, 0, 0.306247, 1.730646, 0.812491)"/>
  <g transform="matrix(0.306247, 0, 0, 0.306247, 1.730646, 0.812491)"/>
  <g transform="matrix(0.306247, 0, 0, 0.306247, 1.730646, 0.812491)"/>
  <g transform="matrix(0.306247, 0, 0, 0.306247, 1.730646, 0.812491)"/>
  <g transform="matrix(0.306247, 0, 0, 0.306247, 1.730646, 0.812491)"/>
  <g transform="matrix(0.306247, 0, 0, 0.306247, 1.730646, 0.812491)"/>
  <g transform="matrix(0.306247, 0, 0, 0.306247, 1.730646, 0.812491)"/>
  <g transform="matrix(0.306247, 0, 0, 0.306247, 1.730646, 0.812491)"/>
</svg>