<?xml version="1.0" encoding="UTF-8"?>
<svg width="48px" height="48px" viewBox="0 0 48 48" version="1.1" xmlns="http://www.w3.org/2000/svg" xmlns:xlink="http://www.w3.org/1999/xlink">
    <!-- Generator: Sketch 47.1 (45422) - http://www.bohemiancoding.com/sketch -->
    <title>💎 / Sort:descending Copy</title>
    <desc>Created with Sketch.</desc>
    <defs></defs>
    <g id="Symbols" stroke="none" stroke-width="1" fill="none" fill-rule="evenodd">
        <g id="💎-/-Sort:descending-Copy" fill-rule="nonzero">
            <path d="M31.2178344,28.9605096 L17.543949,28.9605096 C16.9859873,28.9605096 16.4815287,29.266242 16.2216561,29.7630573 C15.9617834,30.2522293 16,30.8484076 16.3133758,31.3070064 L23.322293,41.4191083 C23.5745223,41.7783439 23.9872611,41.9923567 24.4229299,41.9923567 C24.8585987,41.9923567 25.2713376,41.7707006 25.5235669,41.411465 L32.4484076,31.2993631 C32.7617834,30.8407643 32.7923567,30.2522293 32.5401274,29.7630573 C32.2802548,29.266242 31.7681529,28.9605096 31.2178344,28.9605096 Z" id="XMLID_622_" fill="#8A8A8A"></path>
            <path d="M17.543949,19.0547771 L31.2178344,19.0547771 C31.7681529,19.0547771 32.2802548,18.7490446 32.5401274,18.2598726 C32.8,17.7707006 32.7617834,17.1821656 32.4484076,16.7235669 L25.5235669,6.61146497 C25.2789809,6.2522293 24.866242,6.03057325 24.4229299,6.03057325 C23.9872611,6.03057325 23.5745223,6.24458599 23.322293,6.60382166 L16.3133758,16.7159236 C16,17.1745223 15.9617834,17.7630573 16.2216561,18.2598726 C16.4815287,18.7490446 16.9859873,19.0547771 17.543949,19.0547771 Z" id="XMLID_623_" fill="#D2D2D2"></path>
        </g>
    </g>
</svg>