<?xml version="1.0" encoding="utf-8"?>
<svg id="Capa_1" style="enable-background:new 0 0 16 16;" x="0px" y="0px" width="512px" height="512px" viewBox="0 0 16 16" xmlns="http://www.w3.org/2000/svg">
  <g>
    <g>
      <path d="M4,12.5v3h8v-3v-2H4V12.5z M5,11.5h6v1H5V11.5z M5,13.5h6v1H5V13.5z" fill="#FFFFFF"/>
      <polygon points="12,3.5 12,0.5 4,0.5 4,3.5 4,5.5 12,5.5   " fill="#FFFFFF"/>
      <path d="M14,3.5h-1v2v1H3v-1v-2H2c-1,0-2,1-2,2v5c0,1,1,2,2,2h1v-2v-1h10v1v2h1c1,0,2-1,2-2v-5    C16,4.5,15,3.5,14,3.5z" fill="#FFFFFF"/>
    </g>
  </g>
</svg>